<svg width="625" height="15" fill="none" xmlns="http://www.w3.org/2000/svg"><path fill="#73737D" d="M.317 13.857L8.317 0l.866.5-8 13.857zm8.433-.001L16.75 0l.866.5-8 13.856zm9 0L25.75 0l.866.5-8 13.856zm8.432 0l8-13.857.866.5-8 13.857zm8.568 0L42.75 0l.866.5-8 13.856zm8.432 0l8-13.857.866.5-8 13.857zm9 0l8-13.857.866.5-8 13.857zm8.433 0l8-13.856.866.5-8 13.856zm9.135 0L77.75 0l.866.5-8 13.856zm8.432 0l8-13.857.866.5-8 13.857zm9 0l8-13.857.866.5-8 13.857z"/><path fill="#73737D" d="M86.615 13.856l8-13.856.866.5-8 13.856zm8.568 0l8-13.856.866.5-8 13.856zm8.432 0l8-13.856.866.5-8 13.856zm9 0l8-13.856.866.5-8 13.856zm8.433 0l8-13.856.866.5-8 13.856zm9.135 0l8-13.856.866.5-8 13.856zm8.432 0l8-13.856.866.5-8 13.856zm9 0l8-13.856.866.5-8 13.856zm8.433 0l8-13.856.866.5-8 13.856zm8.567 0l8-13.856.866.5-8 13.856zm8.433 0l8-13.856.866.5-8 13.856z"/><path fill="#73737D" d="M174.048 13.856l8-13.856.866.5-8 13.856zm8.432 0l8-13.856.866.5-8 13.856zm9.135 0l8-13.856.866.5-8 13.856zm8.433 0l8-13.856.866.5-8 13.856zm9 0l8-13.856.866.5-8 13.856zm8.432 0l8-13.856.866.5-8 13.856zm8.568 0l8-13.856.866.5-8 13.856zm8.432 0l8-13.856.866.5-8 13.856zm9 0l8-13.856.866.5-8 13.856zm8.433 0l8-13.856.866.5-8 13.856zm9.135 0l8-13.856.866.5-8 13.856zm8.432 0l8-13.856.866.5-8 13.856z"/><path fill="#73737D" d="M269.48 13.856l8-13.856.866.5-8 13.856zm8.433 0l8-13.856.866.5-8 13.856zm8.567 0l8-13.856.866.5-8 13.856zm8.433 0l8-13.856.866.5-8 13.856zm9 0l8-13.856.866.5-8 13.856zm8.433 0l8-13.856.866.5-8 13.856zm9.134 0l8-13.856.866.5-8 13.856zm8.433 0l8-13.856.866.5-8 13.856zm9 0l8-13.856.866.5-8 13.856zm8.433 0l8-13.856.866.5-8 13.856zm8.567 0l8-13.856.866.5-8 13.856z"/><path fill="#73737D" d="M355.346 13.856l8-13.856.866.5-8 13.856zm9 0l8-13.856.866.5-8 13.856zm8.432 0l8-13.856.866.5-8 13.856zm9.135 0l8-13.856.866.5-8 13.856zm8.433 0l8-13.856.866.5-8 13.856zm9 0l8-13.856.866.5-8 13.856zm8.432 0l8-13.856.866.5-8 13.856zm8.568 0l8-13.856.866.5-8 13.856zm8.432 0l8-13.856.866.5-8 13.856zm9 0l8-13.856.866.5-8 13.856zm8.433 0l8-13.856.866.5-8 13.856z"/><path fill="#73737D" d="M443.346 13.856l8-13.856.866.5-8 13.856zm8.432 0l8-13.856.866.5-8 13.856zm9 0l8-13.856.866.5-8 13.856zm8.433 0l8-13.856.866.5-8 13.856zm8.567 0l8-13.856.866.5-8 13.856zm8.433 0l8-13.856.866.5-8 13.856zm9 0l8-13.856.866.5-8 13.856zm8.433 0l8-13.856.866.5-8 13.856zm9.134 0l8-13.856.866.5-8 13.856zm8.433 0l8-13.856.866.5-8 13.856zm9 0l8-13.856.866.5-8 13.856z"/><path fill="#73737D" d="M529.644 13.856l8-13.856.866.5-8 13.856zm8.567 0l8-13.856.866.5-8 13.856zm8.433 0l8-13.856.866.5-8 13.856zm9 0l8-13.856.866.5-8 13.856zm8.432 0l8-13.856.866.5-8 13.856zm9.135 0l8-13.856.866.5-8 13.856zm8.433 0l8-13.856.866.5-8 13.856zm9 0l8-13.856.866.5-8 13.856zm8.432 0l8-13.856.866.5-8 13.856zm8.568 0l8-13.856.866.5-8 13.856zm8.432 0l8-13.856.866.5-8 13.856z"/></svg>