<svg width="172" height="54" fill="none" xmlns="http://www.w3.org/2000/svg"><path d="M11.16 40.252c-1.752 0-3.336-.3-4.752-.9-1.392-.6-2.496-1.464-3.312-2.592-.816-1.128-1.236-2.46-1.26-3.996h5.4c.072 1.032.432 1.848 1.08 2.448.672.6 1.584.9 2.736.9 1.176 0 2.1-.276 2.772-.828.672-.576 1.008-1.32 1.008-2.232 0-.744-.228-1.356-.684-1.836-.456-.48-1.032-.852-1.728-1.116-.672-.288-1.608-.6-2.808-.936-1.632-.48-2.964-.948-3.996-1.404-1.008-.48-1.884-1.188-2.628-2.124-.72-.96-1.08-2.232-1.08-3.816 0-1.488.372-2.784 1.116-3.888.744-1.104 1.788-1.944 3.132-2.52 1.344-.6 2.88-.9 4.608-.9 2.592 0 4.692.636 6.3 1.908 1.632 1.248 2.532 3 2.7 5.256H14.22c-.048-.864-.42-1.572-1.116-2.124-.672-.576-1.572-.864-2.7-.864-.984 0-1.776.252-2.376.756-.576.504-.864 1.236-.864 2.196 0 .672.216 1.236.648 1.692a5.815 5.815 0 001.656 1.08c.672.264 1.608.576 2.808.936 1.632.48 2.964.96 3.996 1.44s1.92 1.2 2.664 2.16c.744.96 1.116 2.22 1.116 3.78a7.11 7.11 0 01-1.044 3.744c-.696 1.152-1.716 2.076-3.06 2.772-1.344.672-2.94 1.008-4.788 1.008zm11.965-10.296c0-2.016.396-3.804 1.189-5.364.816-1.56 1.907-2.76 3.276-3.6 1.392-.84 2.94-1.26 4.643-1.26 1.489 0 2.785.3 3.889.9 1.127.6 2.028 1.356 2.7 2.268v-2.844h5.075V40h-5.075v-2.916c-.649.936-1.549 1.716-2.7 2.34-1.129.6-2.437.9-3.925.9-1.68 0-3.216-.432-4.608-1.296-1.367-.864-2.46-2.076-3.275-3.636-.793-1.584-1.189-3.396-1.189-5.436zm15.697.072c0-1.224-.24-2.268-.72-3.132-.48-.888-1.128-1.56-1.944-2.016a5.096 5.096 0 00-2.629-.72c-.936 0-1.8.228-2.592.684-.792.456-1.44 1.128-1.944 2.016-.48.864-.72 1.896-.72 3.096 0 1.2.24 2.256.72 3.168.505.888 1.152 1.572 1.945 2.052.816.48 1.68.72 2.591.72.936 0 1.813-.228 2.628-.684a5.237 5.237 0 001.945-2.016c.48-.888.72-1.944.72-3.168zm34.766-10.26c2.448 0 4.416.756 5.904 2.268 1.512 1.488 2.268 3.576 2.268 6.264V40h-5.04V28.984c0-1.56-.396-2.748-1.188-3.564-.792-.84-1.872-1.26-3.24-1.26s-2.46.42-3.276 1.26c-.792.816-1.188 2.004-1.188 3.564V40h-5.04V28.984c0-1.56-.396-2.748-1.188-3.564-.792-.84-1.872-1.26-3.24-1.26-1.392 0-2.496.42-3.312 1.26-.792.816-1.188 2.004-1.188 3.564V40h-5.04V20.056h5.04v2.412a6.742 6.742 0 012.484-1.98c1.032-.48 2.16-.72 3.384-.72 1.56 0 2.952.336 4.176 1.008a6.824 6.824 0 012.844 2.808c.648-1.152 1.584-2.076 2.808-2.772a8.145 8.145 0 014.032-1.044zm11.659 10.188c0-2.016.396-3.804 1.188-5.364.816-1.56 1.908-2.76 3.276-3.6 1.392-.84 2.94-1.26 4.644-1.26 1.488 0 2.784.3 3.888.9 1.128.6 2.028 1.356 2.7 2.268v-2.844h5.076V40h-5.076v-2.916c-.648.936-1.548 1.716-2.7 2.34-1.128.6-2.436.9-3.924.9-1.68 0-3.216-.432-4.608-1.296-1.368-.864-2.46-2.076-3.276-3.636-.792-1.584-1.188-3.396-1.188-5.436zm15.696.072c0-1.224-.24-2.268-.72-3.132-.48-.888-1.128-1.56-1.944-2.016a5.096 5.096 0 00-2.628-.72c-.936 0-1.8.228-2.592.684-.792.456-1.44 1.128-1.944 2.016-.48.864-.72 1.896-.72 3.096 0 1.2.24 2.256.72 3.168.504.888 1.152 1.572 1.944 2.052.816.48 1.68.72 2.592.72.936 0 1.812-.228 2.628-.684a5.24 5.24 0 001.944-2.016c.48-.888.72-1.944.72-3.168zm15.038-6.876a7.133 7.133 0 012.52-2.484c1.056-.6 2.256-.9 3.6-.9v5.292h-1.332c-1.584 0-2.784.372-3.6 1.116-.792.744-1.188 2.04-1.188 3.888V40h-5.04V20.056h5.04v3.096z" fill="#001858"/><path d="M126.556 47.144c-.54 0-.984-.156-1.332-.468a1.587 1.587 0 01-.504-1.188c0-.48.168-.882.504-1.206.348-.324.792-.486 1.332-.486.528 0 .96.162 1.296.486.348.324.522.726.522 1.206 0 .468-.174.864-.522 1.188-.336.312-.768.468-1.296.468zm5.188-11.232c-.54 0-.984-.156-1.332-.468a1.587 1.587 0 01-.504-1.188c0-.48.168-.876.504-1.188.348-.324.792-.486 1.332-.486.528 0 .96.162 1.296.486.348.312.522.708.522 1.188 0 .468-.174.864-.522 1.188-.336.312-.768.468-1.296.468zm1.53 1.044V47h-3.078V36.956h3.078zm8.351-.108c1.176 0 2.112.384 2.808 1.152.708.756 1.062 1.8 1.062 3.132V47h-3.06v-5.454c0-.672-.174-1.194-.522-1.566-.348-.372-.816-.558-1.404-.558s-1.056.186-1.404.558c-.348.372-.522.894-.522 1.566V47h-3.078V36.956h3.078v1.332a3.177 3.177 0 011.26-1.044c.528-.264 1.122-.396 1.782-.396z" fill="#6246EA"/></svg>