<svg width="17" height="17" fill="none" xmlns="http://www.w3.org/2000/svg"><path d="M15.984 5.478c-.037-.867-.175-1.463-.372-1.98a3.992 3.992 0 00-.925-1.447 3.93 3.93 0 00-1.416-.94c-.51-.201-1.09-.342-1.94-.38C10.473.69 10.2.68 8.028.68S5.585.69 4.732.728c-.85.038-1.435.178-1.941.38a3.897 3.897 0 00-1.42.943A4.027 4.027 0 00.45 3.495c-.197.52-.335 1.113-.372 1.98-.04.873-.05 1.15-.05 3.367 0 2.215.01 2.493.047 3.363.037.867.175 1.463.372 1.98.203.548.519 1.04.925 1.447.4.415.884.737 1.416.94.51.202 1.09.342 1.94.38.854.038 1.126.048 3.298.048 2.173 0 2.444-.01 3.298-.048.85-.038 1.434-.178 1.94-.38a4.134 4.134 0 002.342-2.387c.197-.52.334-1.113.372-1.98.037-.87.047-1.148.047-3.363 0-2.216-.003-2.494-.041-3.364zm-1.44 6.663c-.035.797-.167 1.228-.276 1.515a2.68 2.68 0 01-1.519 1.55c-.281.11-.706.245-1.485.28-.843.038-1.097.047-3.231.047-2.135 0-2.392-.01-3.232-.047-.782-.035-1.204-.17-1.485-.28a2.457 2.457 0 01-.919-.61 2.542 2.542 0 01-.597-.937c-.11-.287-.24-.72-.275-1.514-.038-.861-.047-1.12-.047-3.297 0-2.178.01-2.439.047-3.297.034-.797.166-1.227.275-1.514.128-.354.331-.676.6-.937a2.48 2.48 0 01.92-.61c.28-.11.706-.245 1.484-.28.844-.038 1.097-.048 3.232-.048 2.138 0 2.39.01 3.232.048.781.035 1.203.17 1.484.28.347.132.663.339.92.61.265.264.468.583.596.937.11.287.24.72.275 1.514.038.861.047 1.12.047 3.297s-.01 2.432-.047 3.293z" fill="#14142B"/><path d="M8.03 4.65c-2.27 0-4.11 1.877-4.11 4.192 0 2.314 1.84 4.192 4.11 4.192 2.269 0 4.11-1.878 4.11-4.192 0-2.315-1.841-4.193-4.11-4.193zm0 6.911c-1.472 0-2.667-1.218-2.667-2.72 0-1.501 1.195-2.719 2.667-2.719 1.472 0 2.666 1.218 2.666 2.72 0 1.501-1.194 2.72-2.666 2.72zm5.233-7.078a.97.97 0 01-.96.98.97.97 0 01-.96-.98c0-.54.43-.978.96-.978s.96.438.96.978z" fill="#14142B"/></svg>