<svg width="16" height="16" fill="none" xmlns="http://www.w3.org/2000/svg"><g clip-path="url(#clip0_138_11)" fill="#14142B"><path d="M15.996 16H16v-5.87c0-2.87-.618-5.082-3.974-5.082-1.613 0-2.696.886-3.138 1.725h-.046V5.317H5.66V16h3.313v-5.29c0-1.393.264-2.74 1.989-2.74 1.699 0 1.724 1.59 1.724 2.83V16h3.31zM.265 5.318h3.317V16H.265V5.318zM1.921 0C.861 0 0 .86 0 1.921s.86 1.94 1.921 1.94 1.922-.879 1.922-1.94A1.925 1.925 0 001.92 0z"/></g><defs><clipPath id="clip0_138_11"><path fill="#fff" d="M0 0h16v16H0z"/></clipPath></defs></svg>